<?xml version="1.0" encoding="UTF-8" standalone="no"?>
<!DOCTYPE svg PUBLIC "-//W3C//DTD SVG 1.1//EN"
 "http://www.w3.org/Graphics/SVG/1.1/DTD/svg11.dtd">
<!-- Generated by graphviz version 14.0.2 (0)
 -->
<!-- Title: dependency&#45;cruiser output Pages: 1 -->
<svg width="399pt" height="142pt"
 viewBox="0.00 0.00 399.00 142.00" xmlns="http://www.w3.org/2000/svg" xmlns:xlink="http://www.w3.org/1999/xlink">
<g id="graph0" class="graph" transform="scale(1 1) rotate(0) translate(4 138)">
<title>dependency&#45;cruiser output</title>
<polygon fill="white" stroke="none" points="-4,4 -4,-138 395.25,-138 395.25,4 -4,4"/>
<g id="clust1" class="cluster">
<title>cluster_src</title>
<path fill="#ffffff" stroke="black" stroke-width="2" d="M20,-8C20,-8 371.25,-8 371.25,-8 377.25,-8 383.25,-14 383.25,-20 383.25,-20 383.25,-114 383.25,-114 383.25,-120 377.25,-126 371.25,-126 371.25,-126 20,-126 20,-126 14,-126 8,-120 8,-114 8,-114 8,-20 8,-20 8,-14 14,-8 20,-8"/>
<text xml:space="preserve" text-anchor="middle" x="195.62" y="-113.45" font-family="Helvetica,sans-Serif" font-weight="bold" font-size="9.00">src</text>
</g>
<g id="clust2" class="cluster">
<title>cluster_src/core</title>
<path fill="#ffffff" stroke="black" stroke-width="2" d="M184.5,-16C184.5,-16 363.25,-16 363.25,-16 369.25,-16 375.25,-22 375.25,-28 375.25,-28 375.25,-59 375.25,-59 375.25,-65 369.25,-71 363.25,-71 363.25,-71 184.5,-71 184.5,-71 178.5,-71 172.5,-65 172.5,-59 172.5,-59 172.5,-28 172.5,-28 172.5,-22 178.5,-16 184.5,-16"/>
<text xml:space="preserve" text-anchor="middle" x="273.88" y="-58.45" font-family="Helvetica,sans-Serif" font-weight="bold" font-size="9.00">core</text>
</g>
<g id="clust3" class="cluster">
<title>cluster_src/ui</title>
<path fill="#ffffff" stroke="black" stroke-width="2" d="M28.25,-16C28.25,-16 152.5,-16 152.5,-16 158.5,-16 164.5,-22 164.5,-28 164.5,-28 164.5,-59 164.5,-59 164.5,-65 158.5,-71 152.5,-71 152.5,-71 28.25,-71 28.25,-71 22.25,-71 16.25,-65 16.25,-59 16.25,-59 16.25,-28 16.25,-28 16.25,-22 22.25,-16 28.25,-16"/>
<text xml:space="preserve" text-anchor="middle" x="90.38" y="-58.45" font-family="Helvetica,sans-Serif" font-weight="bold" font-size="9.00">ui</text>
</g>
<!-- src/core/baseUrl.ts -->
<g id="node1" class="node">
<title>src/core/baseUrl.ts</title>
<g id="a_node1"><a xlink:href="src/core/baseUrl.ts" xlink:title="baseUrl.ts">
<path fill="#ddfeff" stroke="black" d="M235.08,-43.62C235.08,-43.62 186.92,-43.62 186.92,-43.62 183.71,-43.62 180.5,-40.42 180.5,-37.21 180.5,-37.21 180.5,-30.79 180.5,-30.79 180.5,-27.58 183.71,-24.38 186.92,-24.38 186.92,-24.38 235.08,-24.38 235.08,-24.38 238.29,-24.38 241.5,-27.58 241.5,-30.79 241.5,-30.79 241.5,-37.21 241.5,-37.21 241.5,-40.42 238.29,-43.62 235.08,-43.62"/>
<text xml:space="preserve" text-anchor="start" x="188.5" y="-31.07" font-family="Helvetica,sans-Serif" font-size="9.00">baseUrl.ts</text>
</a>
</g>
</g>
<!-- src/core/generated&#45;ts&#45;client.ts -->
<g id="node2" class="node">
<title>src/core/generated&#45;ts&#45;client.ts</title>
<g id="a_node2"><a xlink:href="src/core/generated-ts-client.ts" xlink:title="generated&#45;ts&#45;client.ts">
<path fill="#ddfeff" stroke="black" d="M360.83,-43.62C360.83,-43.62 260.92,-43.62 260.92,-43.62 257.71,-43.62 254.5,-40.42 254.5,-37.21 254.5,-37.21 254.5,-30.79 254.5,-30.79 254.5,-27.58 257.71,-24.38 260.92,-24.38 260.92,-24.38 360.83,-24.38 360.83,-24.38 364.04,-24.38 367.25,-27.58 367.25,-30.79 367.25,-30.79 367.25,-37.21 367.25,-37.21 367.25,-40.42 364.04,-43.62 360.83,-43.62"/>
<text xml:space="preserve" text-anchor="start" x="262.5" y="-31.07" font-family="Helvetica,sans-Serif" font-size="9.00">generated&#45;ts&#45;client.ts</text>
</a>
</g>
</g>
<!-- src/core/baseUrl.ts&#45;&gt;src/core/generated&#45;ts&#45;client.ts -->
<g id="edge1" class="edge">
<title>src/core/baseUrl.ts&#45;&gt;src/core/generated&#45;ts&#45;client.ts</title>
<path fill="none" stroke="#000000" stroke-width="2" stroke-opacity="0.200000" d="M241.9,-34C243,-34 244.13,-34 245.26,-34"/>
<polygon fill="#000000" fill-opacity="0.200000" stroke="#000000" stroke-width="2" stroke-opacity="0.200000" points="245.13,-36.1 251.13,-34 245.13,-31.9 245.13,-36.1"/>
</g>
<!-- src/index.css -->
<g id="node3" class="node">
<title>src/index.css</title>
<g id="a_node3"><a xlink:href="src/index.css" xlink:title="index.css">
<path fill="#ffffcc" stroke="black" d="M152.08,-98.62C152.08,-98.62 106.92,-98.62 106.92,-98.62 103.71,-98.62 100.5,-95.42 100.5,-92.21 100.5,-92.21 100.5,-85.79 100.5,-85.79 100.5,-82.58 103.71,-79.38 106.92,-79.38 106.92,-79.38 152.08,-79.38 152.08,-79.38 155.29,-79.38 158.5,-82.58 158.5,-85.79 158.5,-85.79 158.5,-92.21 158.5,-92.21 158.5,-95.42 155.29,-98.62 152.08,-98.62"/>
<text xml:space="preserve" text-anchor="start" x="108.5" y="-86.08" font-family="Helvetica,sans-Serif" font-size="9.00">index.css</text>
</a>
</g>
</g>
<!-- src/ui/App.tsx -->
<g id="node4" class="node">
<title>src/ui/App.tsx</title>
<g id="a_node4"><a xlink:href="src/ui/App.tsx" xlink:title="App.tsx">
<path fill="#bbfeff" stroke="black" d="M150.08,-43.62C150.08,-43.62 108.92,-43.62 108.92,-43.62 105.71,-43.62 102.5,-40.42 102.5,-37.21 102.5,-37.21 102.5,-30.79 102.5,-30.79 102.5,-27.58 105.71,-24.38 108.92,-24.38 108.92,-24.38 150.08,-24.38 150.08,-24.38 153.29,-24.38 156.5,-27.58 156.5,-30.79 156.5,-30.79 156.5,-37.21 156.5,-37.21 156.5,-40.42 153.29,-43.62 150.08,-43.62"/>
<text xml:space="preserve" text-anchor="start" x="112.25" y="-31.07" font-family="Helvetica,sans-Serif" font-size="9.00">App.tsx</text>
</a>
</g>
</g>
<!-- src/ui/App.tsx&#45;&gt;src/core/baseUrl.ts -->
<g id="edge2" class="edge">
<title>src/ui/App.tsx&#45;&gt;src/core/baseUrl.ts</title>
<path fill="none" stroke="#000000" stroke-width="2" stroke-opacity="0.200000" d="M156.97,-34C161.6,-34 166.5,-34 171.38,-34"/>
<polygon fill="#000000" fill-opacity="0.200000" stroke="#000000" stroke-width="2" stroke-opacity="0.200000" points="171.05,-36.1 177.05,-34 171.05,-31.9 171.05,-36.1"/>
</g>
<!-- src/ui/App.tsx&#45;&gt;src/core/generated&#45;ts&#45;client.ts -->
<g id="edge3" class="edge">
<title>src/ui/App.tsx&#45;&gt;src/core/generated&#45;ts&#45;client.ts</title>
<path fill="none" stroke="#000000" stroke-opacity="0.200000" d="M154.45,-43.97C161.7,-46.8 168.74,-49.31 172.5,-50 202.66,-55.55 211.04,-53.52 241.5,-50 249.73,-49.05 258.41,-47.48 266.72,-45.68"/>
<polygon fill="none" stroke="#000000" stroke-opacity="0.200000" points="266.73,-47.83 272.12,-44.46 265.81,-43.73 266.73,-47.83"/>
</g>
<!-- src/ui/main.tsx -->
<g id="node5" class="node">
<title>src/ui/main.tsx</title>
<g id="a_node5"><a xlink:href="src/ui/main.tsx" xlink:title="main.tsx">
<path fill="#bbfeff" stroke="black" d="M72.83,-43.62C72.83,-43.62 30.67,-43.62 30.67,-43.62 27.46,-43.62 24.25,-40.42 24.25,-37.21 24.25,-37.21 24.25,-30.79 24.25,-30.79 24.25,-27.58 27.46,-24.38 30.67,-24.38 30.67,-24.38 72.83,-24.38 72.83,-24.38 76.04,-24.38 79.25,-27.58 79.25,-30.79 79.25,-30.79 79.25,-37.21 79.25,-37.21 79.25,-40.42 76.04,-43.62 72.83,-43.62"/>
<text xml:space="preserve" text-anchor="start" x="32.25" y="-31.07" font-family="Helvetica,sans-Serif" font-size="9.00">main.tsx</text>
</a>
</g>
</g>
<!-- src/ui/main.tsx&#45;&gt;src/index.css -->
<g id="edge4" class="edge">
<title>src/ui/main.tsx&#45;&gt;src/index.css</title>
<path fill="none" stroke="#000000" stroke-width="2" stroke-opacity="0.200000" d="M79.75,-42.52C82.55,-44.07 85.21,-45.88 87.5,-48 95.44,-55.32 92.9,-62.1 100.59,-72.43"/>
<polygon fill="#000000" fill-opacity="0.200000" stroke="#000000" stroke-width="2" stroke-opacity="0.200000" points="98.86,-73.64 104.43,-76.7 101.98,-70.84 98.86,-73.64"/>
</g>
<!-- src/ui/main.tsx&#45;&gt;src/ui/App.tsx -->
<g id="edge5" class="edge">
<title>src/ui/main.tsx&#45;&gt;src/ui/App.tsx</title>
<path fill="none" stroke="#000000" stroke-width="2" stroke-opacity="0.200000" d="M79.67,-34C84.13,-34 88.81,-34 93.43,-34"/>
<polygon fill="#000000" fill-opacity="0.200000" stroke="#000000" stroke-width="2" stroke-opacity="0.200000" points="93.15,-36.1 99.15,-34 93.15,-31.9 93.15,-36.1"/>
</g>
<!-- src/vite&#45;env.d.ts -->
<g id="node6" class="node">
<title>src/vite&#45;env.d.ts</title>
<g id="a_node6"><a xlink:href="src/vite-env.d.ts" xlink:title="vite&#45;env.d.ts">
<path fill="#ccffcc" stroke="black" d="M81.08,-98.62C81.08,-98.62 22.42,-98.62 22.42,-98.62 19.21,-98.62 16,-95.42 16,-92.21 16,-92.21 16,-85.79 16,-85.79 16,-82.58 19.21,-79.38 22.42,-79.38 22.42,-79.38 81.08,-79.38 81.08,-79.38 84.29,-79.38 87.5,-82.58 87.5,-85.79 87.5,-85.79 87.5,-92.21 87.5,-92.21 87.5,-95.42 84.29,-98.62 81.08,-98.62"/>
<text xml:space="preserve" text-anchor="start" x="24" y="-86.08" font-family="Helvetica,sans-Serif" font-size="9.00">vite&#45;env.d.ts</text>
</a>
</g>
</g>
</g>
</svg>
